#N canvas 0 0 1522 762 10;
#X obj 510 100 receive pm25;
#X obj 350 240 osc~;
#X msg 350 210 55;
#X obj 410 550 dac~;
#X text 350 130 low drone;
#X obj 350 310 lop~;
#X text 510 70 air sonics;
#X obj 500 230 metro;
#X obj 480 200 tgl 15 0 empty empty empty 17 7 0 10 #fcfcfc #000000
#000000 0 1;
#X obj 450 280 random 9800;
#X obj 460 310 + 200;
#X msg 540 280 1 \, 0 50;
#X obj 530 350 line~;
#X obj 500 380 *~;
#X obj 470 350 osc~;
#X obj 480 410 clip~ -0.1 0.1;
#X obj 490 480 *~ 1.1;
#X obj 570 440 lop~;
#X floatatom 610 390 5 0 0 0 - - -, f 5;
#X obj 360 360 *~ 0.5;
#X obj 564 168 clip 20 90;
#X obj 510 140 expr 1000 - (($f1 - 20) * 17);
#X msg 380 270 50;
#X obj 350 160 loadbang;
#X connect 0 0 21 0;
#X connect 1 0 5 0;
#X connect 2 0 1 0;
#X connect 5 0 19 0;
#X connect 7 0 9 0;
#X connect 7 0 11 0;
#X connect 8 0 7 0;
#X connect 9 0 10 0;
#X connect 10 0 14 0;
#X connect 11 0 12 0;
#X connect 12 0 13 1;
#X connect 13 0 15 0;
#X connect 14 0 13 0;
#X connect 15 0 17 0;
#X connect 16 0 3 0;
#X connect 16 0 3 1;
#X connect 17 0 16 0;
#X connect 18 0 17 1;
#X connect 19 0 3 0;
#X connect 19 0 3 1;
#X connect 20 0 7 1;
#X connect 21 0 20 0;
#X connect 22 0 5 1;
#X connect 23 0 2 0;
#X connect 23 0 22 0;
#X connect 23 0 8 0;
